<svg id="Layer_1" enable-background="new 0 0 511.977 511.977" height="512" viewBox="0 0 511.977 511.977" width="512" xmlns="http://www.w3.org/2000/svg"><path d="m395.453 357.705c-3.898 3.858-8.984 5.784-14.067 5.784-5.153 0-10.306-1.979-14.217-5.932-7.77-7.852-7.703-20.515.147-28.284 39.192-38.786 39.523-102.228.736-141.421-7.77-7.852-7.703-20.515.147-28.284 7.852-7.769 20.515-7.701 28.284.147 54.302 54.872 53.839 143.689-1.03 197.99zm-123.453-233.88v264.343c0 26.748-16.164 50.148-41.181 59.615-7.475 2.828-15.183 4.201-22.786 4.202-17.8.001-35.037-7.521-47.447-21.508l-57.73-63.662c-6.812-7.511-17.716-11.818-27.856-11.818-41.355 0-75-33.645-75-75v-42c0-41.355 33.645-75 75-75 10.623 0 20.647-4.654 27.503-12.769l56.907-67.35c17.414-20.777 45.124-28.22 70.609-18.965 25.502 9.263 41.981 32.78 41.981 59.912zm-40 0c0-15.436-11.968-20.981-15.636-22.314-1.551-.563-4.725-1.501-8.618-1.501-5.315 0-11.976 1.747-17.693 8.579-.021.024-56.996 67.456-56.996 67.456-14.472 17.127-35.633 26.952-58.057 26.952-19.299 0-35 15.701-35 35v42c0 19.299 15.701 35 35 35 21.404 0 43.108 9.094 57.486 24.948 0 0 57.922 63.875 57.979 63.939 10.074 11.407 22.598 7.849 26.196 6.487 3.599-1.361 15.339-6.986 15.339-22.203zm217.793-16.865c-7.77-7.851-20.434-7.919-28.284-.147-7.851 7.77-7.917 20.433-.147 28.284 67.877 68.588 67.299 179.61-1.288 247.486-7.851 7.77-7.917 20.433-.147 28.284 3.912 3.952 9.063 5.932 14.217 5.932 5.083 0 10.169-1.926 14.067-5.784 40.819-40.397 63.465-94.271 63.764-151.699s-21.786-111.536-62.182-152.356zm-138.455 108.881c-7.851 7.77-7.917 20.433-.147 28.284 7.757 7.838 7.691 20.526-.147 28.283-7.851 7.77-7.917 20.433-.147 28.284 3.912 3.952 9.063 5.932 14.217 5.932 5.083 0 10.169-1.927 14.067-5.784 23.516-23.271 23.714-61.336.442-84.852-7.77-7.85-20.434-7.916-28.285-.147z"/></svg>