<svg id="Layer_1" enable-background="new 0 0 436.65 436.65" height="512" viewBox="0 0 436.65 436.65" width="512" xmlns="http://www.w3.org/2000/svg"><path d="m340.361 178.112c11.457 11.331 17.721 26.382 17.638 42.381-.083 16.002-6.506 30.991-18.084 42.206-3.884 3.762-8.901 5.634-13.913 5.634-5.226 0-10.445-2.035-14.368-6.085-7.685-7.935-7.482-20.597.452-28.281 3.787-3.668 5.887-8.527 5.914-13.682.027-5.151-2.021-10.028-5.765-13.731-7.854-7.768-7.924-20.431-.157-28.284 7.767-7.855 20.43-7.924 28.283-.158zm55.855-56.847c-7.771-7.852-20.433-7.916-28.284-.147-7.851 7.77-7.917 20.433-.147 28.284 18.777 18.974 29.028 44.187 28.863 70.992-.165 26.807-10.718 51.923-29.716 70.724-7.851 7.77-7.917 20.433-.147 28.284 3.912 3.953 9.063 5.932 14.216 5.932 5.083 0 10.169-1.927 14.068-5.784 26.583-26.307 41.349-61.434 41.579-98.909.229-37.506-14.13-72.798-40.432-99.376zm-124.216-35.104v264.343c0 26.748-16.165 50.148-41.182 59.615-7.474 2.828-15.182 4.201-22.786 4.202-17.801.001-35.042-7.523-47.452-21.513l-57.725-63.657c-6.811-7.511-17.716-11.818-27.855-11.818-41.355 0-75-33.645-75-75v-42c0-41.355 33.645-75 75-75 10.623 0 20.647-4.654 27.503-12.769l56.9-67.343c17.415-20.78 45.128-28.228 70.616-18.972 25.503 9.264 41.981 32.78 41.981 59.912zm-40 0c0-15.436-11.968-20.981-15.636-22.314-1.551-.563-4.724-1.501-8.618-1.501-5.316 0-11.976 1.747-17.694 8.58-.02.023-56.995 67.455-56.995 67.455-14.472 17.128-35.633 26.952-58.057 26.952-19.299 0-35 15.701-35 35v42c0 19.299 15.701 35 35 35 21.404 0 43.108 9.094 57.486 24.948 0 0 57.922 63.875 57.98 63.94 10.074 11.404 22.597 7.85 26.195 6.486 3.598-1.361 15.338-6.986 15.338-22.204v-264.342z"/></svg>